<?xml version="1.0" encoding="UTF-8" standalone="no"?>
<svg width="147px" height="144px" viewBox="0 0 147 144" version="1.1" xmlns="http://www.w3.org/2000/svg" xmlns:xlink="http://www.w3.org/1999/xlink" xmlns:sketch="http://www.bohemiancoding.com/sketch/ns">
    <!-- Generator: Sketch 3.0.4 (8054) - http://www.bohemiancoding.com/sketch -->
    <title>logo-corner-ru</title>
    <desc>Created with Sketch.</desc>
    <defs>
        <rect id="path-1" x="0" y="0" width="147" height="144"></rect>
    </defs>
    <g id="Page-1" stroke="none" stroke-width="1" fill="none" fill-rule="evenodd" sketch:type="MSPage">
        <g id="logo-corner-ru" sketch:type="MSLayerGroup">
            <g id="Oval-1-+-ЮНИСЕРВИС-2-+-logo-2">
                <g id="Oval-1-Clipped">
                    <mask id="mask-2" sketch:name="path-1" fill="white">
                        <use xlink:href="#path-1"></use>
                    </mask>
                    <g id="path-1"></g>
                    <circle id="Oval-1" fill="#0073AE" sketch:type="MSShapeGroup" mask="url(#mask-2)" cx="15" cy="12" r="132"></circle>
                </g>
                <g id="УНИСЕРВИС-2-Clipped" transform="translate(23.000000, 62.000000)" fill="#8BBF00" sketch:type="MSShapeGroup">
                    <path d="M1.75753661,5.06718346 L-0.194229113,0.533591731 L1.25538329,0.533591731 L2.36864772,3.35701981 L3.33505599,0.533591731 L4.65202412,0.533591731 L2.92291128,5.39405685 C2.69867818,6.02885761 2.45944715,6.45520994 2.20521102,6.67312661 C1.9509749,6.89104329 1.59804992,7 1.1464255,7 L0.544788975,7 L0.544788975,5.80146425 L1.1464255,5.80146425 C1.24117188,5.80146425 1.33670638,5.77067214 1.43303187,5.70908699 C1.52935736,5.64750185 1.63752452,5.43353614 1.75753661,5.06718346 L1.75753661,5.06718346 Z M5.03574505,0.533591731 L6.45693368,0.533591731 L6.45693368,3.14384152 L8.01076658,3.14384152 L8.01076658,0.533591731 L9.43195521,0.533591731 L9.43195521,7 L8.01076658,7 L8.01076658,4.35658915 L6.45693368,4.35658915 L6.45693368,7 L5.03574505,7 L5.03574505,0.533591731 Z M12.0753661,6.33677864 L12.0753661,7 L10.6541774,7 L10.6541774,0.533591731 L12.0753661,0.533591731 L12.0753661,4.16236003 L12.2885444,3.76916451 L13.7334195,1.24892334 L13.7334195,0.533591731 L15.1546081,0.533591731 L15.1546081,7 L13.7334195,7 L13.7334195,3.65073213 L13.7381568,3.39491817 L13.5107666,3.82127476 L12.0753661,6.33677864 Z M19.5223945,4.64556417 L20.8346253,4.72609819 C20.7872521,5.42722142 20.5646015,5.99805981 20.1666667,6.43863049 C19.7687319,6.87920117 19.2428973,7.0994832 18.5891473,7.0994832 C17.7932777,7.0994832 17.1869099,6.80419474 16.7700258,6.21360896 C16.3531418,5.62302317 16.1447028,4.80979559 16.1447028,3.77390181 C16.1447028,2.72853339 16.3515627,1.91056856 16.7652885,1.31998277 C17.1790144,0.72939699 17.7932776,0.434108527 18.6080965,0.434108527 C19.9566533,0.434108527 20.6909268,1.26786419 20.8109388,2.93540052 L19.5129199,3.03014643 C19.4781796,2.07004975 19.1781538,1.59000861 18.6128338,1.59000861 C18.3159618,1.59000861 18.0798889,1.74475872 17.9046081,2.05426357 C17.7293273,2.36376842 17.6416882,2.96381984 17.6416882,3.85443583 C17.6416882,4.65030544 17.7222214,5.19745759 17.8832903,5.4959087 C18.0443591,5.7943598 18.2859588,5.94358312 18.6080965,5.94358312 C19.1260434,5.94358312 19.4308063,5.51091446 19.5223945,4.64556417 L19.5223945,4.64556417 Z M21.6683893,0.533591731 L25.6003445,0.533591731 L25.6003445,1.64211886 L23.089578,1.64211886 L23.089578,3.14384152 L25.0413437,3.14384152 L25.0413437,4.25710594 L23.089578,4.25710594 L23.089578,5.84409991 L25.6003445,5.84409991 L25.6003445,7 L21.6683893,7 L21.6683893,0.533591731 Z M26.296727,0.533591731 L28.1584841,0.533591731 C28.7238041,0.533591731 29.1619996,0.580964212 29.4730835,0.675710594 C29.7841675,0.770456977 30.0455057,0.984422681 30.2571059,1.31761413 C30.4687062,1.65080557 30.5745047,2.06373569 30.5745047,2.55641688 C30.5745047,3.03014879 30.4892343,3.4217613 30.3186908,3.73126615 C30.1481473,4.040771 29.9120744,4.2642112 29.6104651,4.40159345 C29.3088558,4.53897571 28.845395,4.60766581 28.2200689,4.60766581 L27.7179156,4.60766581 L27.7179156,7 L26.296727,7 L26.296727,0.533591731 Z M27.7179156,1.58053402 L27.7179156,3.49440138 L28.1584841,3.49440138 C28.5469442,3.49440138 28.7972288,3.40439366 28.9093454,3.22437554 C29.0214619,3.04435741 29.0775194,2.81065317 29.0775194,2.52325581 C29.0775194,2.28007343 29.0340946,2.08347764 28.9472438,1.93346253 C28.8603929,1.78344743 28.7593316,1.68712338 28.6440568,1.64448751 C28.5287821,1.60185164 28.3669261,1.58053402 28.1584841,1.58053402 L27.7179156,1.58053402 Z M31.2566753,0.533591731 L33.464255,0.533591731 C33.9822018,0.533591731 34.3730248,0.574647881 34.6367356,0.656761413 C34.9004463,0.738874944 35.1215179,0.91889037 35.2999569,1.19681309 C35.478396,1.47473581 35.5676141,1.82055492 35.5676141,2.23428079 C35.5676141,2.95751151 35.259693,3.42176182 34.6438415,3.62704565 C35.3765469,3.8860191 35.7428941,4.4150118 35.7428941,5.21403962 C35.7428941,5.63408192 35.6434118,5.98858598 35.4444444,6.27756245 C35.245477,6.56653891 34.9999297,6.759187 34.707795,6.85551249 C34.4156603,6.95183798 34.0011511,7 33.464255,7 L31.2566753,7 L31.2566753,0.533591731 Z M32.6210164,3.14384152 L33.080534,3.14384152 C33.5384749,3.14384152 33.8266575,3.06172922 33.9450904,2.89750215 C34.0635234,2.73327509 34.122739,2.54536425 34.122739,2.333764 C34.122739,2.13795481 34.0635234,1.96346617 33.9450904,1.81029285 C33.8266575,1.65711953 33.5732147,1.58053402 33.1847545,1.58053402 L32.6210164,1.58053402 L32.6210164,3.14384152 Z M32.6210164,5.88673557 L33.3173988,5.88673557 C33.9711488,5.88673557 34.2980189,5.60565885 34.2980189,5.04349699 C34.2980189,4.73083392 34.2166962,4.51055189 34.0540482,4.38264427 C33.8914003,4.25473666 33.6458529,4.19078381 33.3173988,4.19078381 L32.6210164,4.19078381 L32.6210164,5.88673557 Z M38.130491,6.33677864 L38.130491,7 L36.7093023,7 L36.7093023,0.533591731 L38.130491,0.533591731 L38.130491,4.16236003 L38.3436693,3.76916451 L39.7885444,1.24892334 L39.7885444,0.533591731 L41.209733,0.533591731 L41.209733,7 L39.7885444,7 L39.7885444,3.65073213 L39.7932817,3.39491817 L39.5658915,3.82127476 L38.130491,6.33677864 Z M45.5775194,4.64556417 L46.8897502,4.72609819 C46.842377,5.42722142 46.6197264,5.99805981 46.2217916,6.43863049 C45.8238568,6.87920117 45.2980222,7.0994832 44.6442722,7.0994832 C43.8484026,7.0994832 43.2420348,6.80419474 42.8251507,6.21360896 C42.4082666,5.62302317 42.1998277,4.80979559 42.1998277,3.77390181 C42.1998277,2.72853339 42.4066876,1.91056856 42.8204134,1.31998277 C43.2341393,0.72939699 43.8484025,0.434108527 44.6632214,0.434108527 C46.0117782,0.434108527 46.7460517,1.26786419 46.8660637,2.93540052 L45.5680448,3.03014643 C45.5333044,2.07004975 45.2332787,1.59000861 44.6679587,1.59000861 C44.3710867,1.59000861 44.1350138,1.74475872 43.959733,2.05426357 C43.7844522,2.36376842 43.6968131,2.96381984 43.6968131,3.85443583 C43.6968131,4.65030544 43.7773463,5.19745759 43.9384152,5.4959087 C44.099484,5.7943598 44.3410837,5.94358312 44.6632214,5.94358312 C45.1811683,5.94358312 45.4859312,5.51091446 45.5775194,4.64556417 L45.5775194,4.64556417 Z" id="УНИСЕРВИС"></path>
                </g>
                <g id="ЮНИСЕРВИС-2-+-logo-2-Clipped" transform="translate(37.000000, 20.000000)" fill="#8BBF00" sketch:type="MSShapeGroup">
                    <g id="ЮНИСЕРВИС-2-+-logo-2">
                        <g id="logo-2">
                            <g id="Group">
                                <path d="M0.497347502,63.9 C-1.69098145,60.52399 3.97877938,51.5 18.1034478,51.9 C32.2281162,52.3 50.530504,71.1999997 72.5132626,59.1 C49.4363395,78.4000012 40.484084,63.9000002 18.1034475,62.2000002 C10.6432359,61.5000002 2.98408489,66.8999994 0.497347502,63.9 L0.497347502,63.9 Z" id="Path-1"></path>
                                <path d="M49.4363395,39.2934497 C48.8908277,39.7519597 48.2180883,40.0625735 47.4791155,40.1639716 C47.1205471,42.1743428 45.3721119,43.7 43.2692308,43.7 C40.9686514,43.7 39.0922958,41.8739951 38.9959289,39.584981 C38.7760952,39.6595674 38.5406223,39.7 38.295756,39.7 C37.103776,39.7 36.1343852,38.7418992 36.1079797,37.5499355 C35.8305457,37.5829952 35.5482164,37.6 35.2619363,37.6 C32.6591416,37.6 30.3829067,36.1943741 29.1433281,34.0970058 C27.1529934,34.0176383 25.5636605,32.3704133 25.5636605,30.35 C25.5636605,28.6856823 26.6421276,27.2745975 28.134821,26.784529 C27.6574742,26.3809639 27.3541114,25.776098 27.3541114,25.1 C27.3541114,24.1945796 27.8981673,23.416908 28.6755481,23.0793736 C27.8607915,22.2883302 27.3541114,21.1786514 27.3541114,19.95 C27.3541114,17.6216006 29.1737763,15.7204733 31.4614278,15.6055055 C31.1313397,15.1750349 30.9350133,14.635567 30.9350133,14.05 C30.9350133,12.7767327 31.8632627,11.7214259 33.0765443,11.5307277 C33.0418732,11.3089364 33.0238727,11.0815815 33.0238727,10.85 C33.0238727,8.44756134 34.9611021,6.5 37.3507958,6.5 C38.5032997,6.5 39.5505628,6.95299307 40.3260297,7.69153564 C40.4559896,6.97186679 40.8863908,6.35743564 41.4818716,5.98432577 C41.101932,5.38141344 40.8819629,4.66653199 40.8819629,3.9 C40.8819629,1.74608948 42.6187893,0 44.7612732,0 C46.3068211,0 47.6412684,0.908649228 48.264894,2.22356127 C48.5756766,2.14290535 48.9015546,2.1 49.2374005,2.1 C49.9479836,2.1 50.6139441,2.29207066 51.186717,2.6273878 C51.8942123,1.87178097 52.8982714,1.4 54.0119363,1.4 C55.7882205,1.4 57.2856683,2.60020718 57.7456714,4.23796707 C57.9232499,4.21294029 58.1046841,4.2 58.2891247,4.2 C58.7049153,4.2 59.1054276,4.26576285 59.4809319,4.38750686 C60.178124,3.71400507 61.125188,3.3 62.168435,3.3 C64.310919,3.3 66.0477454,5.04608948 66.0477454,7.2 C66.0477454,7.40991755 66.0312486,7.61596152 65.9994873,7.8168931 C67.6845158,8.24160132 68.9323607,9.77429856 68.9323607,11.6 C68.9323607,11.9551157 68.88515,12.299146 68.7966942,12.6260932 C70.1648746,13.2287304 71.1206897,14.6021486 71.1206897,16.2 C71.1206897,16.5439656 71.0763971,16.877531 70.9932331,17.1952459 C72.0855868,17.8851842 72.8116711,19.1073468 72.8116711,20.5 C72.8116711,21.6839975 72.2868604,22.7447652 71.458346,23.4600168 C71.6885063,23.958564 71.8169761,24.5141991 71.8169761,25.1 C73.6269279,25.4921674 75,27.0848794 75,29 C75,29.8601011 74.7230508,30.6551723 74.2539139,31.3 C74.7230508,31.9448277 75,32.7398989 75,33.6 C75,35.7539105 73.2631736,37.5 71.1206897,37.5 C70.0392412,37.5 69.0611488,37.0551199 68.3576102,36.3374704 C67.6499808,37.2861774 66.5222878,37.9 65.2519894,37.9 C64.8237749,37.9 64.4117654,37.8302484 64.0265891,37.7014303 C63.7818307,39.6185084 62.1525305,41.1 60.1790451,41.1 C58.7490248,41.1 57.4997256,40.3221144 56.8269759,39.1642827 C56.6545712,39.1878348 56.4785661,39.2 56.2997347,39.2 C55.7726679,39.2 55.2701513,39.0943273 54.8120038,38.9029065 C54.4591224,39.2984869 54.0270238,39.6211763 53.5407938,39.8457551 L54.2866154,54.9042265 C55.036338,54.4568617 55.91174,54.2 56.846817,54.2 C58.8185109,54.2 60.5248808,55.3420459 61.3471336,57.0040446 C61.5364057,57.0010893 61.7275389,57 61.9197613,57 C64.653747,57 65.5698245,58.1506381 66.6445623,60.2 C66.6935235,60.2299465 66.8939201,60.5692961 66.9429708,60.6 C54.4098143,65.5 41.0809019,58.8 37.5994695,57 C37.4236774,56.9441969 36.6047745,56.5 36.6047745,56.5 C37.1254282,55.841363 39.6126207,54.359806 42.1750663,54.5 C43.1241673,54.5519263 43.9351642,54.7093659 44.5904694,54.9681287 C45.5114766,53.8283155 46.9168256,53.1 48.4913793,53.1 C49.3733189,53.1 50.202173,53.3284979 50.922563,53.7298196 L51.6741478,40.1921 C50.8250576,40.1380408 50.0501568,39.8093714 49.4363395,39.2934497 L49.4363395,39.2934497 Z" id="Oval-1"></path>
                            </g>
                        </g>
                    </g>
                </g>
            </g>
        </g>
    </g>
</svg>