<?xml version="1.0" encoding="UTF-8" standalone="no"?>
<svg width="756px" height="691px" viewBox="0 0 756 691" version="1.1" xmlns="http://www.w3.org/2000/svg" xmlns:xlink="http://www.w3.org/1999/xlink" xmlns:sketch="http://www.bohemiancoding.com/sketch/ns">
    <!-- Generator: Sketch 3.0.4 (8054) - http://www.bohemiancoding.com/sketch -->
    <title>logo-big RUS vector</title>
    <desc>Created with Sketch.</desc>
    <defs></defs>
    <g id="Page-1" stroke="none" stroke-width="1" fill="none" fill-rule="evenodd" sketch:type="MSPage">
        <g id="logo-big-RUS-vector" sketch:type="MSLayerGroup" fill="#8BBF00">
            <g id="Page-1" sketch:type="MSShapeGroup">
                <g id="logo-+-ЮНИСЕРВИС">
                    <g id="logo" transform="translate(2.000000, 0.000000)">
                        <path d="M5.00000022,639 C-17.0000001,605.2399 39.9999953,515 181.999995,519 C323.999995,523 508,711.999997 729,591 C497,784.000012 406.999991,639.000002 181.999993,622.000002 C106.999999,615.000002 30.0000001,668.999994 5.00000022,639 L5.00000022,639 Z" id="Path-1"></path>
                        <path d="M497,392.934497 C491.515788,397.519597 484.752514,400.625735 477.323375,401.639716 C473.718567,421.743428 456.140965,437 435,437 C411.871509,437 393.007881,418.739951 392.039072,395.84981 C389.82901,396.595674 387.461723,397 385,397 C373.016628,397 363.27102,387.418992 363.005555,375.499355 C360.21642,375.829952 357.378068,376 354.5,376 C328.333237,376 305.449488,361.943741 292.987592,340.970058 C272.978094,340.176383 257,323.704133 257,303.5 C257,286.856823 267.842189,272.745975 282.848734,267.84529 C278.049807,263.809639 275,257.76098 275,251 C275,241.945796 280.469576,234.16908 288.284843,230.793736 C280.093823,222.883302 275,211.786514 275,199.5 C275,176.216006 293.293698,157.204733 316.292221,156.055055 C312.973735,151.750349 311,146.35567 311,140.5 C311,127.767327 320.332002,117.214259 332.529525,115.307277 C332.180965,113.089364 332,110.815815 332,108.5 C332,84.4756134 351.475613,65 375.5,65 C387.086507,65 397.614991,69.5299307 405.411018,76.9153564 C406.717549,69.7186679 411.044515,63.5743564 417.031082,59.8432577 C413.211423,53.8141344 411,46.6653199 411,39 C411,17.4608948 428.460895,0 450,0 C465.537908,0 478.953552,9.08649228 485.223068,22.2356127 C488.347469,21.4290535 491.623629,21 495,21 C502.143728,21 508.838852,22.9207066 514.597128,26.273878 C521.709814,18.7178097 531.803955,14 543,14 C560.857577,14 575.911919,26.0020718 580.536483,42.3796707 C582.321739,42.1294029 584.145758,42 586,42 C590.180081,42 594.206565,42.6576285 597.981635,43.8750686 C604.99074,37.1400507 614.51189,33 625,33 C646.539105,33 664,50.4608948 664,72 C664,74.0991755 663.834153,76.1596152 663.514846,78.168931 C680.454999,82.4160132 693,97.7429856 693,116 C693,119.551157 692.525375,122.99146 691.636099,126.260932 C705.390873,132.287304 715,146.021486 715,162 C715,165.439656 714.554712,168.77531 713.718636,171.952459 C724.700433,178.851842 732,191.073468 732,205 C732,216.839975 726.723903,227.447652 718.394572,234.600168 C720.70845,239.58564 722,245.141991 722,251 C740.196048,254.921674 754,270.848794 754,290 C754,298.601011 751.215737,306.551723 746.499348,313 C751.215737,319.448277 754,327.398989 754,336 C754,357.539105 736.539105,375 715,375 C704.127838,375 694.294749,370.551199 687.221841,363.374704 C680.107807,372.861774 668.770733,379 656,379 C651.695017,379 647.552948,378.302484 643.680643,377.014303 C641.220005,396.185084 624.840107,411 605,411 C590.623529,411 578.063908,403.221144 571.300531,391.642827 C569.567289,391.878348 567.797851,392 566,392 C560.701222,392 555.649255,390.943273 551.043345,389.029065 C547.495711,392.984869 543.151679,396.211763 538.263447,398.457551 L545.761441,549.042265 C553.298652,544.568617 562.09936,542 571.5,542 C591.322096,542 608.476801,553.420459 616.743183,570.040446 C618.645999,570.010893 620.567525,570 622.5,570 C649.985669,570 659.195302,581.506381 670,602 C670.492223,602.299465 672.506877,605.692961 673,606 C547,655 413,588 378,570 C376.232703,569.441969 368,565 368,565 C373.234305,558.41363 398.23888,543.59806 424,545 C433.541629,545.519263 441.694851,547.093659 448.282852,549.681287 C457.542045,538.283155 471.670487,531 487.5,531 C496.366432,531 504.699179,533.284979 511.9415,537.298196 L519.497433,401.921 C510.961246,401.380408 503.17091,398.093714 497,392.934497 L497,392.934497 Z" id="Oval-1"></path>
                    </g>
                    <g id="УНИСЕРВИС" transform="translate(0.000000, 452.000000)">
                        <path d="M17.4982773,40.9560724 L0.287252369,0.978036176 L13.0701981,0.978036176 L22.8871662,25.8755383 L31.4091301,0.978036176 L43.0223945,0.978036176 L27.7747631,43.8385013 C25.7974348,49.4362898 23.6878522,53.1959422 21.4459518,55.1175711 C19.2040514,57.0392 16.0918947,58 12.1093885,58 L6.80404823,58 L6.80404823,47.4310939 L12.1093885,47.4310939 C12.9448793,47.4310939 13.7873199,47.1595634 14.6367356,46.6164944 C15.4861512,46.0734254 16.439989,44.1866369 17.4982773,40.9560724 Z M46.4061154,0.978036176 L58.9384152,0.978036176 L58.9384152,23.9956934 L72.6403962,23.9956934 L72.6403962,0.978036176 L85.172696,0.978036176 L85.172696,58 L72.6403962,58 L72.6403962,34.6899225 L58.9384152,34.6899225 L58.9384152,58 L46.4061154,58 L46.4061154,0.978036176 Z M108.482773,52.1515935 L108.482773,58 L95.9504737,58 L95.9504737,0.978036176 L108.482773,0.978036176 L108.482773,32.9771748 L110.362618,29.5099053 L123.10379,7.28596038 L123.10379,0.978036176 L135.63609,0.978036176 L135.63609,58 L123.10379,58 L123.10379,28.4655469 L123.145564,26.209733 L121.140396,29.9694229 L108.482773,52.1515935 Z M174.152024,37.2381568 L185.723514,37.9483204 C185.305769,44.1309525 183.342395,49.1647093 179.833333,53.0497416 C176.324272,56.9347739 171.687367,58.877261 165.922481,58.877261 C158.904358,58.877261 153.557297,56.2733536 149.881137,51.0654608 C146.204977,45.857568 144.366925,38.6863793 144.366925,29.5516796 C144.366925,20.3334308 146.191053,13.1204682 149.839363,7.91257537 C153.487673,2.70468255 158.904357,0.100775194 166.089578,0.100775194 C177.981397,0.100775194 184.456354,7.45298419 185.514643,22.1576227 L174.068475,22.9931094 C173.762129,14.5268023 171.116448,10.2937123 166.131352,10.2937123 C163.513481,10.2937123 161.431748,11.6583269 159.88609,14.3875969 C158.340432,17.1168669 157.567614,22.4082295 157.567614,30.2618432 C157.567614,37.2799662 158.277771,42.1048533 159.698105,44.7366494 C161.118439,47.3684455 163.248909,48.6843239 166.089578,48.6843239 C170.656928,48.6843239 173.344383,44.868973 174.152024,37.2381568 Z M193.075797,0.978036176 L227.748493,0.978036176 L227.748493,10.75323 L205.608096,10.75323 L205.608096,23.9956934 L222.819121,23.9956934 L222.819121,33.8126615 L205.608096,33.8126615 L205.608096,47.8070629 L227.748493,47.8070629 L227.748493,58 L193.075797,58 L193.075797,0.978036176 Z M233.88932,0.978036176 L250.306632,0.978036176 C255.291727,0.978036176 259.155815,1.39577532 261.899009,2.23126615 C264.642204,3.06675698 266.946732,4.95354546 268.812661,7.8916882 C270.678591,10.8298309 271.611542,14.4711238 271.611542,18.8156761 C271.611542,22.9931303 270.859611,26.4464406 269.355728,29.1757106 C267.851844,31.9049806 265.770111,33.8753169 263.110465,35.0867786 C260.450819,36.2982403 256.363938,36.9039621 250.849699,36.9039621 L246.421619,36.9039621 L246.421619,58 L233.88932,58 L233.88932,0.978036176 Z M246.421619,10.2101637 L246.421619,27.086994 L250.306632,27.086994 C253.732145,27.086994 255.9392,26.2932896 256.927864,24.705857 C257.916528,23.1184244 258.410853,21.057578 258.410853,18.5232558 C258.410853,16.3788294 258.027925,14.6452119 257.262059,13.3223514 C256.496192,11.9994909 255.605015,11.150088 254.588501,10.7741171 C253.571987,10.3981463 252.144712,10.2101637 250.306632,10.2101637 L246.421619,10.2101637 Z M277.627046,0.978036176 L297.093885,0.978036176 C301.661234,0.978036176 305.107582,1.34007677 307.433032,2.06416882 C309.758481,2.78826087 311.707931,4.37566963 313.281438,6.82644272 C314.854946,9.27721581 315.641688,12.3267116 315.641688,15.9750215 C315.641688,22.3526015 312.926384,26.4464452 307.495693,28.2566753 C313.956822,30.5403502 317.187339,35.205104 317.187339,42.2510767 C317.187339,45.955086 316.310086,49.0811673 314.555556,51.6294143 C312.801025,54.1776613 310.635744,55.8764672 308.059647,56.7258829 C305.48355,57.5752985 301.828333,58 297.093885,58 L277.627046,58 L277.627046,0.978036176 Z M289.658053,23.9956934 L293.710164,23.9956934 C297.748369,23.9956934 300.289616,23.2716122 301.333979,21.8234281 C302.378343,20.375244 302.900517,18.718212 302.900517,16.8522825 C302.900517,15.1256015 302.378343,13.5869289 301.333979,12.2362188 C300.289616,10.8855086 298.054711,10.2101637 294.629199,10.2101637 L289.658053,10.2101637 L289.658053,23.9956934 Z M289.658053,48.1830319 L295.79888,48.1830319 C301.563767,48.1830319 304.446167,45.7044463 304.446167,40.7472007 C304.446167,37.990081 303.729048,36.0475939 302.294789,34.9196813 C300.86053,33.7917687 298.695248,33.2278208 295.79888,33.2278208 L289.658053,33.2278208 L289.658053,48.1830319 Z M338.241602,52.1515935 L338.241602,58 L325.709302,58 L325.709302,0.978036176 L338.241602,0.978036176 L338.241602,32.9771748 L340.121447,29.5099053 L352.862618,7.28596038 L352.862618,0.978036176 L365.394918,0.978036176 L365.394918,58 L352.862618,58 L352.862618,28.4655469 L352.904393,26.209733 L350.899225,29.9694229 L338.241602,52.1515935 Z M403.910853,37.2381568 L415.482343,37.9483204 C415.064597,44.1309525 413.101223,49.1647093 409.592162,53.0497416 C406.0831,56.9347739 401.446196,58.877261 395.681309,58.877261 C388.663186,58.877261 383.316125,56.2733536 379.639966,51.0654608 C375.963806,45.857568 374.125754,38.6863793 374.125754,29.5516796 C374.125754,20.3334308 375.949881,13.1204682 379.598191,7.91257537 C383.246501,2.70468255 388.663185,0.100775194 395.848407,0.100775194 C407.740226,0.100775194 414.215183,7.45298419 415.273471,22.1576227 L403.827304,22.9931094 C403.520957,14.5268023 400.875276,10.2937123 395.890181,10.2937123 C393.27231,10.2937123 391.190576,11.6583269 389.644918,14.3875969 C388.09926,17.1168669 387.326443,22.4082295 387.326443,30.2618432 C387.326443,37.2799662 388.036599,42.1048533 389.456934,44.7366494 C390.877268,47.3684455 393.007738,48.6843239 395.848407,48.6843239 C400.415756,48.6843239 403.103212,44.868973 403.910853,37.2381568 L403.910853,37.2381568 Z"></path>
                    </g>
                </g>
            </g>
        </g>
    </g>
</svg>