<?xml version="1.0" encoding="UTF-8" standalone="no"?>
<svg width="147px" height="144px" viewBox="0 0 147 144" version="1.1" xmlns="http://www.w3.org/2000/svg" xmlns:xlink="http://www.w3.org/1999/xlink" xmlns:sketch="http://www.bohemiancoding.com/sketch/ns">
    <!-- Generator: Sketch 3.0.4 (8054) - http://www.bohemiancoding.com/sketch -->
    <title>logo-corner-eng</title>
    <desc>Created with Sketch.</desc>
    <defs>
        <rect id="path-1" x="0" y="0" width="147" height="144"></rect>
    </defs>
    <g id="Page-1" stroke="none" stroke-width="1" fill="none" fill-rule="evenodd" sketch:type="MSPage">
        <g id="logo-corner-eng" sketch:type="MSLayerGroup">
            <g id="Oval-1-+-ЮНИСЕРВИС-2-+-logo-2">
                <g id="Oval-1-Clipped">
                    <mask id="mask-2" sketch:name="path-1" fill="white">
                        <use xlink:href="#path-1"></use>
                    </mask>
                    <g id="path-1"></g>
                    <circle id="Oval-1" fill="#0073AE" sketch:type="MSShapeGroup" mask="url(#mask-2)" cx="15" cy="12" r="132"></circle>
                </g>
                <g id="УНИСЕРВИС-2-Clipped" transform="translate(24.000000, 62.000000)" fill="#8BBF00" sketch:type="MSShapeGroup">
                    <path d="M-0.388888889,0.533591731 L1.03229974,0.533591731 L1.03229974,4.22868217 C1.03229974,4.74978727 1.05598598,5.11297629 1.10335917,5.31826012 C1.15073236,5.52354395 1.24942503,5.67908359 1.39944014,5.78488372 C1.54945524,5.89068385 1.73341838,5.94358312 1.95133506,5.94358312 C2.18820101,5.94358312 2.37611185,5.88515706 2.51507321,5.76830319 C2.65403457,5.65144932 2.73930504,5.49669921 2.77088717,5.30404823 C2.80246929,5.11139726 2.81826012,4.75294549 2.81826012,4.22868217 L2.81826012,0.533591731 L4.00732127,0.533591731 L4.00732127,4.17183463 C4.00732127,4.89822356 3.96547558,5.43984892 3.88178295,5.79672696 C3.79809031,6.153605 3.58491415,6.45994704 3.24224806,6.71576227 C2.89958198,6.97157751 2.4282258,7.0994832 1.82816537,7.0994832 C1.26600351,7.0994832 0.823860353,7.00552778 0.501722653,6.81761413 C0.179584953,6.62970047 -0.049382037,6.36599366 -0.185185185,6.02648579 C-0.320988333,5.68697792 -0.388888889,5.08771604 -0.388888889,4.22868217 L-0.388888889,0.533591731 Z M5.17743325,0.533591731 L6.75495263,0.533591731 L8.41774332,4.55081826 L8.41774332,0.533591731 L9.51679587,0.533591731 L9.51679587,7 L8.24720069,7 L6.27648579,2.31955211 L6.27648579,7 L5.17743325,7 L5.17743325,0.533591731 Z M10.6821705,0.533591731 L12.1033592,0.533591731 L12.1033592,7 L10.6821705,7 L10.6821705,0.533591731 Z M17.2812231,1.94056848 L16.1063738,2.39061154 C15.9389885,1.85687359 15.6326465,1.59000861 15.1873385,1.59000861 C14.9788965,1.59000861 14.8138823,1.64922421 14.6922911,1.76765719 C14.5706999,1.88609017 14.5099053,2.02425991 14.5099053,2.18217054 C14.5099053,2.36534688 14.5817535,2.51141203 14.7254522,2.62037037 C14.8691509,2.72932871 15.1699661,2.87223569 15.627907,3.04909561 C16.0447911,3.20384803 16.3724507,3.35701905 16.6108958,3.50861326 C16.8493408,3.66020748 17.0419889,3.86627777 17.1888458,4.12683032 C17.3357027,4.38738287 17.4091301,4.6897772 17.4091301,5.03402239 C17.4091301,5.63724103 17.2014807,6.13228345 16.7861757,6.51916451 C16.3708707,6.90604557 15.8142441,7.0994832 15.1162791,7.0994832 C13.9445821,7.0994832 13.1960969,6.5073272 12.870801,5.32299742 L14.1119724,4.96770026 C14.2635666,5.61829208 14.6093858,5.94358312 15.1494401,5.94358312 C15.3957807,5.94358312 15.5955347,5.87963027 15.748708,5.75172265 C15.9018813,5.62381504 15.9784668,5.45564273 15.9784668,5.24720069 C15.9784668,5.08929005 15.924778,4.94796215 15.8173988,4.82321275 C15.7100196,4.69846334 15.4636827,4.56660994 15.0783807,4.42764858 C14.5825413,4.25078866 14.213036,4.09051177 13.9698536,3.94681309 C13.7266712,3.80311441 13.5261277,3.59783366 13.3682171,3.33096469 C13.2103064,3.06409571 13.1313523,2.76012229 13.1313523,2.41903531 C13.1313523,1.83792417 13.3184736,1.36183074 13.6927218,0.990740741 C14.06697,0.619650743 14.5620124,0.434108527 15.1778639,0.434108527 C16.3021876,0.434108527 17.0033004,0.936256822 17.2812231,1.94056848 L17.2812231,1.94056848 Z M18.2855297,0.533591731 L22.2174849,0.533591731 L22.2174849,1.64211886 L19.7067183,1.64211886 L19.7067183,3.14384152 L21.6584841,3.14384152 L21.6584841,4.25710594 L19.7067183,4.25710594 L19.7067183,5.84409991 L22.2174849,5.84409991 L22.2174849,7 L18.2855297,7 L18.2855297,0.533591731 Z M22.9138674,0.533591731 L24.9461671,0.533591731 C25.3409437,0.533591731 25.643338,0.551751182 25.8533592,0.588070629 C26.0633803,0.624390075 26.2757669,0.722293202 26.4905254,0.881782946 C26.7052839,1.04127269 26.8734562,1.2591861 26.9950474,1.53552972 C27.1166386,1.81187333 27.1774332,2.12216308 27.1774332,2.46640827 C27.1774332,3.27491073 26.8742494,3.8433805 26.2678725,4.17183463 L27.4569337,7 L25.9078381,7 L25.0456503,4.44186047 L24.335056,4.44186047 L24.335056,7 L22.9138674,7 L22.9138674,0.533591731 Z M24.335056,1.58053402 L24.335056,3.39491817 L24.960379,3.39491817 C25.5162244,3.39491817 25.794143,3.08383888 25.794143,2.46167097 C25.794143,2.24691251 25.7530868,2.07084479 25.6709733,1.93346253 C25.5888598,1.79608028 25.4933253,1.7029144 25.3843669,1.6539621 C25.2754086,1.6050098 25.1151317,1.58053402 24.9035314,1.58053402 L24.335056,1.58053402 Z M27.5137812,0.533591731 L29.0060293,0.533591731 L30.0008613,5.46037898 L31.0288544,0.533591731 L32.2463394,0.533591731 L30.6593454,7.03316107 L29.0676141,7 L27.5137812,0.533591731 Z M32.7200689,0.533591731 L34.1412575,0.533591731 L34.1412575,7 L32.7200689,7 L32.7200689,0.533591731 Z M38.5090439,4.64556417 L39.8212748,4.72609819 C39.7739016,5.42722142 39.5512509,5.99805981 39.1533161,6.43863049 C38.7553813,6.87920117 38.2295468,7.0994832 37.5757967,7.0994832 C36.7799271,7.0994832 36.1735594,6.80419474 35.7566753,6.21360896 C35.3397912,5.62302317 35.1313523,4.80979559 35.1313523,3.77390181 C35.1313523,2.72853339 35.3382121,1.91056856 35.751938,1.31998277 C36.1656639,0.72939699 36.779927,0.434108527 37.5947459,0.434108527 C38.9433028,0.434108527 39.6775762,1.26786419 39.7975883,2.93540052 L38.4995693,3.03014643 C38.464829,2.07004975 38.1648033,1.59000861 37.5994832,1.59000861 C37.3026112,1.59000861 37.0665383,1.74475872 36.8912575,2.05426357 C36.7159767,2.36376842 36.6283376,2.96381984 36.6283376,3.85443583 C36.6283376,4.65030544 36.7088709,5.19745759 36.8699397,5.4959087 C37.0310086,5.7943598 37.2726082,5.94358312 37.5947459,5.94358312 C38.1126928,5.94358312 38.4174558,5.51091446 38.5090439,4.64556417 L38.5090439,4.64556417 Z M40.6550388,0.533591731 L44.586994,0.533591731 L44.586994,1.64211886 L42.0762274,1.64211886 L42.0762274,3.14384152 L44.0279931,3.14384152 L44.0279931,4.25710594 L42.0762274,4.25710594 L42.0762274,5.84409991 L44.586994,5.84409991 L44.586994,7 L40.6550388,7 L40.6550388,0.533591731 Z" id="UNISERVICE"></path>
                </g>
                <g id="ЮНИСЕРВИС-2-+-logo-2-Clipped" transform="translate(37.000000, 20.000000)" fill="#8BBF00" sketch:type="MSShapeGroup">
                    <g id="ЮНИСЕРВИС-2-+-logo-2">
                        <g id="logo-2">
                            <g id="Group">
                                <path d="M0.497347502,63.9 C-1.69098145,60.52399 3.97877938,51.5 18.1034478,51.9 C32.2281162,52.3 50.530504,71.1999997 72.5132626,59.1 C49.4363395,78.4000012 40.484084,63.9000002 18.1034475,62.2000002 C10.6432359,61.5000002 2.98408489,66.8999994 0.497347502,63.9 L0.497347502,63.9 Z" id="Path-1"></path>
                                <path d="M49.4363395,39.2934497 C48.8908277,39.7519597 48.2180883,40.0625735 47.4791155,40.1639716 C47.1205471,42.1743428 45.3721119,43.7 43.2692308,43.7 C40.9686514,43.7 39.0922958,41.8739951 38.9959289,39.584981 C38.7760952,39.6595674 38.5406223,39.7 38.295756,39.7 C37.103776,39.7 36.1343852,38.7418992 36.1079797,37.5499355 C35.8305457,37.5829952 35.5482164,37.6 35.2619363,37.6 C32.6591416,37.6 30.3829067,36.1943741 29.1433281,34.0970058 C27.1529934,34.0176383 25.5636605,32.3704133 25.5636605,30.35 C25.5636605,28.6856823 26.6421276,27.2745975 28.134821,26.784529 C27.6574742,26.3809639 27.3541114,25.776098 27.3541114,25.1 C27.3541114,24.1945796 27.8981673,23.416908 28.6755481,23.0793736 C27.8607915,22.2883302 27.3541114,21.1786514 27.3541114,19.95 C27.3541114,17.6216006 29.1737763,15.7204733 31.4614278,15.6055055 C31.1313397,15.1750349 30.9350133,14.635567 30.9350133,14.05 C30.9350133,12.7767327 31.8632627,11.7214259 33.0765443,11.5307277 C33.0418732,11.3089364 33.0238727,11.0815815 33.0238727,10.85 C33.0238727,8.44756134 34.9611021,6.5 37.3507958,6.5 C38.5032997,6.5 39.5505628,6.95299307 40.3260297,7.69153564 C40.4559896,6.97186679 40.8863908,6.35743564 41.4818716,5.98432577 C41.101932,5.38141344 40.8819629,4.66653199 40.8819629,3.9 C40.8819629,1.74608948 42.6187893,0 44.7612732,0 C46.3068211,0 47.6412684,0.908649228 48.264894,2.22356127 C48.5756766,2.14290535 48.9015546,2.1 49.2374005,2.1 C49.9479836,2.1 50.6139441,2.29207066 51.186717,2.6273878 C51.8942123,1.87178097 52.8982714,1.4 54.0119363,1.4 C55.7882205,1.4 57.2856683,2.60020718 57.7456714,4.23796707 C57.9232499,4.21294029 58.1046841,4.2 58.2891247,4.2 C58.7049153,4.2 59.1054276,4.26576285 59.4809319,4.38750686 C60.178124,3.71400507 61.125188,3.3 62.168435,3.3 C64.310919,3.3 66.0477454,5.04608948 66.0477454,7.2 C66.0477454,7.40991755 66.0312486,7.61596152 65.9994873,7.8168931 C67.6845158,8.24160132 68.9323607,9.77429856 68.9323607,11.6 C68.9323607,11.9551157 68.88515,12.299146 68.7966942,12.6260932 C70.1648746,13.2287304 71.1206897,14.6021486 71.1206897,16.2 C71.1206897,16.5439656 71.0763971,16.877531 70.9932331,17.1952459 C72.0855868,17.8851842 72.8116711,19.1073468 72.8116711,20.5 C72.8116711,21.6839975 72.2868604,22.7447652 71.458346,23.4600168 C71.6885063,23.958564 71.8169761,24.5141991 71.8169761,25.1 C73.6269279,25.4921674 75,27.0848794 75,29 C75,29.8601011 74.7230508,30.6551723 74.2539139,31.3 C74.7230508,31.9448277 75,32.7398989 75,33.6 C75,35.7539105 73.2631736,37.5 71.1206897,37.5 C70.0392412,37.5 69.0611488,37.0551199 68.3576102,36.3374704 C67.6499808,37.2861774 66.5222878,37.9 65.2519894,37.9 C64.8237749,37.9 64.4117654,37.8302484 64.0265891,37.7014303 C63.7818307,39.6185084 62.1525305,41.1 60.1790451,41.1 C58.7490248,41.1 57.4997256,40.3221144 56.8269759,39.1642827 C56.6545712,39.1878348 56.4785661,39.2 56.2997347,39.2 C55.7726679,39.2 55.2701513,39.0943273 54.8120038,38.9029065 C54.4591224,39.2984869 54.0270238,39.6211763 53.5407938,39.8457551 L54.2866154,54.9042265 C55.036338,54.4568617 55.91174,54.2 56.846817,54.2 C58.8185109,54.2 60.5248808,55.3420459 61.3471336,57.0040446 C61.5364057,57.0010893 61.7275389,57 61.9197613,57 C64.653747,57 65.5698245,58.1506381 66.6445623,60.2 C66.6935235,60.2299465 66.8939201,60.5692961 66.9429708,60.6 C54.4098143,65.5 41.0809019,58.8 37.5994695,57 C37.4236774,56.9441969 36.6047745,56.5 36.6047745,56.5 C37.1254282,55.841363 39.6126207,54.359806 42.1750663,54.5 C43.1241673,54.5519263 43.9351642,54.7093659 44.5904694,54.9681287 C45.5114766,53.8283155 46.9168256,53.1 48.4913793,53.1 C49.3733189,53.1 50.202173,53.3284979 50.922563,53.7298196 L51.6741478,40.1921 C50.8250576,40.1380408 50.0501568,39.8093714 49.4363395,39.2934497 L49.4363395,39.2934497 Z" id="Oval-1"></path>
                            </g>
                        </g>
                    </g>
                </g>
            </g>
        </g>
    </g>
</svg>