<?xml version="1.0" encoding="UTF-8" standalone="no"?>
<svg width="757px" height="691px" viewBox="0 0 757 691" version="1.1" xmlns="http://www.w3.org/2000/svg" xmlns:xlink="http://www.w3.org/1999/xlink" xmlns:sketch="http://www.bohemiancoding.com/sketch/ns">
    <!-- Generator: Sketch 3.0.4 (8054) - http://www.bohemiancoding.com/sketch -->
    <title>logo + ЮНИСЕРВИС</title>
    <desc>Created with Sketch.</desc>
    <defs></defs>
    <g id="Page-1" stroke="none" stroke-width="1" fill="none" fill-rule="evenodd" sketch:type="MSPage">
        <g id="logo-+-ЮНИСЕРВИС" sketch:type="MSLayerGroup" transform="translate(3.000000, 0.000000)" fill="#8BBF00">
            <g id="logo" sketch:type="MSShapeGroup">
                <path d="M5.00000022,639 C-17.0000001,605.2399 39.9999953,515 181.999995,519 C323.999995,523 508,711.999997 729,591 C497,784.000012 406.999991,639.000002 181.999993,622.000002 C106.999999,615.000002 30.0000001,668.999994 5.00000022,639 Z" id="Path-1"></path>
                <path d="M497,392.934497 C491.515788,397.519597 484.752514,400.625735 477.323375,401.639716 C473.718567,421.743428 456.140965,437 435,437 C411.871509,437 393.007881,418.739951 392.039072,395.84981 C389.82901,396.595674 387.461723,397 385,397 C373.016628,397 363.27102,387.418992 363.005555,375.499355 C360.21642,375.829952 357.378068,376 354.5,376 C328.333237,376 305.449488,361.943741 292.987592,340.970058 C272.978094,340.176383 257,323.704133 257,303.5 C257,286.856823 267.842189,272.745975 282.848734,267.84529 C278.049807,263.809639 275,257.76098 275,251 C275,241.945796 280.469576,234.16908 288.284843,230.793736 C280.093823,222.883302 275,211.786514 275,199.5 C275,176.216006 293.293698,157.204733 316.292221,156.055055 C312.973735,151.750349 311,146.35567 311,140.5 C311,127.767327 320.332002,117.214259 332.529525,115.307277 C332.180965,113.089364 332,110.815815 332,108.5 C332,84.4756134 351.475613,65 375.5,65 C387.086507,65 397.614991,69.5299307 405.411018,76.9153564 C406.717549,69.7186679 411.044515,63.5743564 417.031082,59.8432577 C413.211423,53.8141344 411,46.6653199 411,39 C411,17.4608948 428.460895,0 450,0 C465.537908,0 478.953552,9.08649228 485.223068,22.2356127 C488.347469,21.4290535 491.623629,21 495,21 C502.143728,21 508.838852,22.9207066 514.597128,26.273878 C521.709814,18.7178097 531.803955,14 543,14 C560.857577,14 575.911919,26.0020718 580.536483,42.3796707 C582.321739,42.1294029 584.145758,42 586,42 C590.180081,42 594.206565,42.6576285 597.981635,43.8750686 C604.99074,37.1400507 614.51189,33 625,33 C646.539105,33 664,50.4608948 664,72 C664,74.0991755 663.834153,76.1596152 663.514846,78.168931 C680.454999,82.4160132 693,97.7429856 693,116 C693,119.551157 692.525375,122.99146 691.636099,126.260932 C705.390873,132.287304 715,146.021486 715,162 C715,165.439656 714.554712,168.77531 713.718636,171.952459 C724.700433,178.851842 732,191.073468 732,205 C732,216.839975 726.723903,227.447652 718.394572,234.600168 C720.70845,239.58564 722,245.141991 722,251 C740.196048,254.921674 754,270.848794 754,290 C754,298.601011 751.215737,306.551723 746.499348,313 C751.215737,319.448277 754,327.398989 754,336 C754,357.539105 736.539105,375 715,375 C704.127838,375 694.294749,370.551199 687.221841,363.374704 C680.107807,372.861774 668.770733,379 656,379 C651.695017,379 647.552948,378.302484 643.680643,377.014303 C641.220005,396.185084 624.840107,411 605,411 C590.623529,411 578.063908,403.221144 571.300531,391.642827 C569.567289,391.878348 567.797851,392 566,392 C560.701222,392 555.649255,390.943273 551.043345,389.029065 C547.495711,392.984869 543.151679,396.211763 538.263447,398.457551 L545.761441,549.042265 C553.298652,544.568617 562.09936,542 571.5,542 C591.322096,542 608.476801,553.420459 616.743183,570.040446 C618.645999,570.010893 620.567525,570 622.5,570 C649.985669,570 659.195302,581.506381 670,602 C670.492223,602.299465 672.506877,605.692961 673,606 C547,655 413,588 378,570 C376.232703,569.441969 368,565 368,565 C373.234305,558.41363 398.23888,543.59806 424,545 C433.541629,545.519263 441.694851,547.093659 448.282852,549.681287 C457.542045,538.283155 471.670487,531 487.5,531 C496.366432,531 504.699179,533.284979 511.9415,537.298196 L519.497433,401.921 C510.961246,401.380408 503.17091,398.093714 497,392.934497 Z" id="Oval-1"></path>
            </g>
            <text id="УНИСЕРВИС" sketch:type="MSTextLayer" font-family="Franklin Gothic Demi Cond" font-size="97" font-style="condensed" font-weight="473">
                <tspan x="0" y="510">УНИСЕРВИС</tspan>
            </text>
        </g>
    </g>
</svg>