<?xml version="1.0" encoding="UTF-8" standalone="no"?>
<svg width="187px" height="230px" viewBox="0 0 187 230" version="1.1" xmlns="http://www.w3.org/2000/svg" xmlns:xlink="http://www.w3.org/1999/xlink" xmlns:sketch="http://www.bohemiancoding.com/sketch/ns">
    <!-- Generator: Sketch 3.0.4 (8054) - http://www.bohemiancoding.com/sketch -->
    <title>logo-corner-rus</title>
    <desc>Created with Sketch.</desc>
    <defs>
        <rect id="path-1" x="0" y="0" width="187" height="230"></rect>
        <rect id="path-3" x="0" y="0" width="187" height="230"></rect>
        <rect id="path-5" x="0" y="0" width="187" height="230"></rect>
    </defs>
    <g id="Page-1" stroke="none" stroke-width="1" fill="none" fill-rule="evenodd" sketch:type="MSPage">
        <g id="logo-corner-rus" sketch:type="MSLayerGroup">
            <g id="Page-2">
                <g id="Oval-1-+-ЮНИСЕРВИС-2-+-logo-2">
                    <g id="mask-2" fill="#FFFFFF" sketch:type="MSShapeGroup">
                        <rect id="path-1" x="0" y="0" width="187" height="230"></rect>
                    </g>
                    <g id="Rectangle-3" sketch:type="MSShapeGroup">
                        <rect id="path-1" x="0" y="0" width="187" height="230"></rect>
                    </g>
                    <g id="Oval-1-Clipped">
                        <mask id="mask-2" sketch:name="path-1" fill="white">
                            <use xlink:href="#path-1"></use>
                        </mask>
                        <g id="path-1"></g>
                        <circle id="Oval-1" fill="#0073AE" sketch:type="MSShapeGroup" mask="url(#mask-2)" cx="15" cy="12" r="132"></circle>
                    </g>
                    <g id="УНИСЕРВИС-2-Clipped">
                        <mask id="mask-4" sketch:name="path-1" fill="white">
                            <use xlink:href="#path-3"></use>
                        </mask>
                        <g id="path-1"></g>
                        <path d="M24.7575366,67.0671835 L22.8057709,62.5335917 L24.2553833,62.5335917 L25.3686477,65.3570198 L26.335056,62.5335917 L27.6520241,62.5335917 L25.9229113,67.3940568 C25.6986782,68.0288576 25.4594472,68.4552099 25.205211,68.6731266 C24.9509749,68.8910433 24.5980499,69 24.1464255,69 L23.544789,69 L23.544789,67.8014643 L24.1464255,67.8014643 C24.2411719,67.8014643 24.3367064,67.7706721 24.4330319,67.709087 C24.5293574,67.6475018 24.6375245,67.4335361 24.7575366,67.0671835 L24.7575366,67.0671835 Z M28.035745,62.5335917 L29.4569337,62.5335917 L29.4569337,65.1438415 L31.0107666,65.1438415 L31.0107666,62.5335917 L32.4319552,62.5335917 L32.4319552,69 L31.0107666,69 L31.0107666,66.3565891 L29.4569337,66.3565891 L29.4569337,69 L28.035745,69 L28.035745,62.5335917 Z M35.0753661,68.3367786 L35.0753661,69 L33.6541774,69 L33.6541774,62.5335917 L35.0753661,62.5335917 L35.0753661,66.16236 L35.2885444,65.7691645 L36.7334195,63.2489233 L36.7334195,62.5335917 L38.1546081,62.5335917 L38.1546081,69 L36.7334195,69 L36.7334195,65.6507321 L36.7381568,65.3949182 L36.5107666,65.8212748 L35.0753661,68.3367786 Z M42.5223945,66.6455642 L43.8346253,66.7260982 C43.7872521,67.4272214 43.5646015,67.9980598 43.1666667,68.4386305 C42.7687319,68.8792012 42.2428973,69.0994832 41.5891473,69.0994832 C40.7932777,69.0994832 40.1869099,68.8041947 39.7700258,68.213609 C39.3531418,67.6230232 39.1447028,66.8097956 39.1447028,65.7739018 C39.1447028,64.7285334 39.3515627,63.9105686 39.7652885,63.3199828 C40.1790144,62.729397 40.7932776,62.4341085 41.6080965,62.4341085 C42.9566533,62.4341085 43.6909268,63.2678642 43.8109388,64.9354005 L42.5129199,65.0301464 C42.4781796,64.0700498 42.1781538,63.5900086 41.6128338,63.5900086 C41.3159618,63.5900086 41.0798889,63.7447587 40.9046081,64.0542636 C40.7293273,64.3637684 40.6416882,64.9638198 40.6416882,65.8544358 C40.6416882,66.6503054 40.7222214,67.1974576 40.8832903,67.4959087 C41.0443591,67.7943598 41.2859588,67.9435831 41.6080965,67.9435831 C42.1260434,67.9435831 42.4308063,67.5109145 42.5223945,66.6455642 L42.5223945,66.6455642 Z M44.6683893,62.5335917 L48.6003445,62.5335917 L48.6003445,63.6421189 L46.089578,63.6421189 L46.089578,65.1438415 L48.0413437,65.1438415 L48.0413437,66.2571059 L46.089578,66.2571059 L46.089578,67.8440999 L48.6003445,67.8440999 L48.6003445,69 L44.6683893,69 L44.6683893,62.5335917 Z M49.296727,62.5335917 L51.1584841,62.5335917 C51.7238041,62.5335917 52.1619996,62.5809642 52.4730835,62.6757106 C52.7841675,62.770457 53.0455057,62.9844227 53.2571059,63.3176141 C53.4687062,63.6508056 53.5745047,64.0637357 53.5745047,64.5564169 C53.5745047,65.0301488 53.4892343,65.4217613 53.3186908,65.7312661 C53.1481473,66.040771 52.9120744,66.2642112 52.6104651,66.4015935 C52.3088558,66.5389757 51.845395,66.6076658 51.2200689,66.6076658 L50.7179156,66.6076658 L50.7179156,69 L49.296727,69 L49.296727,62.5335917 Z M50.7179156,63.580534 L50.7179156,65.4944014 L51.1584841,65.4944014 C51.5469442,65.4944014 51.7972288,65.4043937 51.9093454,65.2243755 C52.0214619,65.0443574 52.0775194,64.8106532 52.0775194,64.5232558 C52.0775194,64.2800734 52.0340946,64.0834776 51.9472438,63.9334625 C51.8603929,63.7834474 51.7593316,63.6871234 51.6440568,63.6444875 C51.5287821,63.6018516 51.3669261,63.580534 51.1584841,63.580534 L50.7179156,63.580534 Z M54.2566753,62.5335917 L56.464255,62.5335917 C56.9822018,62.5335917 57.3730248,62.5746479 57.6367356,62.6567614 C57.9004463,62.7388749 58.1215179,62.9188904 58.2999569,63.1968131 C58.478396,63.4747358 58.5676141,63.8205549 58.5676141,64.2342808 C58.5676141,64.9575115 58.259693,65.4217618 57.6438415,65.6270457 C58.3765469,65.8860191 58.7428941,66.4150118 58.7428941,67.2140396 C58.7428941,67.6340819 58.6434118,67.988586 58.4444444,68.2775624 C58.245477,68.5665389 57.9999297,68.759187 57.707795,68.8555125 C57.4156603,68.951838 57.0011511,69 56.464255,69 L54.2566753,69 L54.2566753,62.5335917 Z M55.6210164,65.1438415 L56.080534,65.1438415 C56.5384749,65.1438415 56.8266575,65.0617292 56.9450904,64.8975022 C57.0635234,64.7332751 57.122739,64.5453643 57.122739,64.333764 C57.122739,64.1379548 57.0635234,63.9634662 56.9450904,63.8102929 C56.8266575,63.6571195 56.5732147,63.580534 56.1847545,63.580534 L55.6210164,63.580534 L55.6210164,65.1438415 Z M55.6210164,67.8867356 L56.3173988,67.8867356 C56.9711488,67.8867356 57.2980189,67.6056589 57.2980189,67.043497 C57.2980189,66.7308339 57.2166962,66.5105519 57.0540482,66.3826443 C56.8914003,66.2547367 56.6458529,66.1907838 56.3173988,66.1907838 L55.6210164,66.1907838 L55.6210164,67.8867356 Z M61.130491,68.3367786 L61.130491,69 L59.7093023,69 L59.7093023,62.5335917 L61.130491,62.5335917 L61.130491,66.16236 L61.3436693,65.7691645 L62.7885444,63.2489233 L62.7885444,62.5335917 L64.209733,62.5335917 L64.209733,69 L62.7885444,69 L62.7885444,65.6507321 L62.7932817,65.3949182 L62.5658915,65.8212748 L61.130491,68.3367786 Z M68.5775194,66.6455642 L69.8897502,66.7260982 C69.842377,67.4272214 69.6197264,67.9980598 69.2217916,68.4386305 C68.8238568,68.8792012 68.2980222,69.0994832 67.6442722,69.0994832 C66.8484026,69.0994832 66.2420348,68.8041947 65.8251507,68.213609 C65.4082666,67.6230232 65.1998277,66.8097956 65.1998277,65.7739018 C65.1998277,64.7285334 65.4066876,63.9105686 65.8204134,63.3199828 C66.2341393,62.729397 66.8484025,62.4341085 67.6632214,62.4341085 C69.0117782,62.4341085 69.7460517,63.2678642 69.8660637,64.9354005 L68.5680448,65.0301464 C68.5333044,64.0700498 68.2332787,63.5900086 67.6679587,63.5900086 C67.3710867,63.5900086 67.1350138,63.7447587 66.959733,64.0542636 C66.7844522,64.3637684 66.6968131,64.9638198 66.6968131,65.8544358 C66.6968131,66.6503054 66.7773463,67.1974576 66.9384152,67.4959087 C67.099484,67.7943598 67.3410837,67.9435831 67.6632214,67.9435831 C68.1811683,67.9435831 68.4859312,67.5109145 68.5775194,66.6455642 L68.5775194,66.6455642 Z" id="УНИСЕРВИС" fill="#8BBF00" sketch:type="MSShapeGroup" mask="url(#mask-4)"></path>
                    </g>
                    <g id="ЮНИСЕРВИС-2-+-logo-2-Clipped">
                        <mask id="mask-6" sketch:name="path-1" fill="white">
                            <use xlink:href="#path-5"></use>
                        </mask>
                        <g id="path-1"></g>
                        <g id="ЮНИСЕРВИС-2-+-logo-2" mask="url(#mask-6)">
                            <g transform="translate(37.000000, 20.000000)" id="logo-2">
                                <g>
                                    <g id="Group" fill="#8BBF00" sketch:type="MSShapeGroup">
                                        <path d="M0.497347502,63.9 C-1.69098145,60.52399 3.97877938,51.5 18.1034478,51.9 C32.2281162,52.3 50.530504,71.1999997 72.5132626,59.1 C49.4363395,78.4000012 40.484084,63.9000002 18.1034475,62.2000002 C10.6432359,61.5000002 2.98408489,66.8999994 0.497347502,63.9 L0.497347502,63.9 Z" id="Path-1"></path>
                                        <path d="M49.4363395,39.2934497 C48.8908277,39.7519597 48.2180883,40.0625735 47.4791155,40.1639716 C47.1205471,42.1743428 45.3721119,43.7 43.2692308,43.7 C40.9686514,43.7 39.0922958,41.8739951 38.9959289,39.584981 C38.7760952,39.6595674 38.5406223,39.7 38.295756,39.7 C37.103776,39.7 36.1343852,38.7418992 36.1079797,37.5499355 C35.8305457,37.5829952 35.5482164,37.6 35.2619363,37.6 C32.6591416,37.6 30.3829067,36.1943741 29.1433281,34.0970058 C27.1529934,34.0176383 25.5636605,32.3704133 25.5636605,30.35 C25.5636605,28.6856823 26.6421276,27.2745975 28.134821,26.784529 C27.6574742,26.3809639 27.3541114,25.776098 27.3541114,25.1 C27.3541114,24.1945796 27.8981673,23.416908 28.6755481,23.0793736 C27.8607915,22.2883302 27.3541114,21.1786514 27.3541114,19.95 C27.3541114,17.6216006 29.1737763,15.7204733 31.4614278,15.6055055 C31.1313397,15.1750349 30.9350133,14.635567 30.9350133,14.05 C30.9350133,12.7767327 31.8632627,11.7214259 33.0765443,11.5307277 C33.0418732,11.3089364 33.0238727,11.0815815 33.0238727,10.85 C33.0238727,8.44756134 34.9611021,6.5 37.3507958,6.5 C38.5032997,6.5 39.5505628,6.95299307 40.3260297,7.69153564 C40.4559896,6.97186679 40.8863908,6.35743564 41.4818716,5.98432577 C41.101932,5.38141344 40.8819629,4.66653199 40.8819629,3.9 C40.8819629,1.74608948 42.6187893,0 44.7612732,0 C46.3068211,0 47.6412684,0.908649228 48.264894,2.22356127 C48.5756766,2.14290535 48.9015546,2.1 49.2374005,2.1 C49.9479836,2.1 50.6139441,2.29207066 51.186717,2.6273878 C51.8942123,1.87178097 52.8982714,1.4 54.0119363,1.4 C55.7882205,1.4 57.2856683,2.60020718 57.7456714,4.23796707 C57.9232499,4.21294029 58.1046841,4.2 58.2891247,4.2 C58.7049153,4.2 59.1054276,4.26576285 59.4809319,4.38750686 C60.178124,3.71400507 61.125188,3.3 62.168435,3.3 C64.310919,3.3 66.0477454,5.04608948 66.0477454,7.2 C66.0477454,7.40991755 66.0312486,7.61596152 65.9994873,7.8168931 C67.6845158,8.24160132 68.9323607,9.77429856 68.9323607,11.6 C68.9323607,11.9551157 68.88515,12.299146 68.7966942,12.6260932 C70.1648746,13.2287304 71.1206897,14.6021486 71.1206897,16.2 C71.1206897,16.5439656 71.0763971,16.877531 70.9932331,17.1952459 C72.0855868,17.8851842 72.8116711,19.1073468 72.8116711,20.5 C72.8116711,21.6839975 72.2868604,22.7447652 71.458346,23.4600168 C71.6885063,23.958564 71.8169761,24.5141991 71.8169761,25.1 C73.6269279,25.4921674 75,27.0848794 75,29 C75,29.8601011 74.7230508,30.6551723 74.2539139,31.3 C74.7230508,31.9448277 75,32.7398989 75,33.6 C75,35.7539105 73.2631736,37.5 71.1206897,37.5 C70.0392412,37.5 69.0611488,37.0551199 68.3576102,36.3374704 C67.6499808,37.2861774 66.5222878,37.9 65.2519894,37.9 C64.8237749,37.9 64.4117654,37.8302484 64.0265891,37.7014303 C63.7818307,39.6185084 62.1525305,41.1 60.1790451,41.1 C58.7490248,41.1 57.4997256,40.3221144 56.8269759,39.1642827 C56.6545712,39.1878348 56.4785661,39.2 56.2997347,39.2 C55.7726679,39.2 55.2701513,39.0943273 54.8120038,38.9029065 C54.4591224,39.2984869 54.0270238,39.6211763 53.5407938,39.8457551 L54.2866154,54.9042265 C55.036338,54.4568617 55.91174,54.2 56.846817,54.2 C58.8185109,54.2 60.5248808,55.3420459 61.3471336,57.0040446 C61.5364057,57.0010893 61.7275389,57 61.9197613,57 C64.653747,57 65.5698245,58.1506381 66.6445623,60.2 C66.6935235,60.2299465 66.8939201,60.5692961 66.9429708,60.6 C54.4098143,65.5 41.0809019,58.8 37.5994695,57 C37.4236774,56.9441969 36.6047745,56.5 36.6047745,56.5 C37.1254282,55.841363 39.6126207,54.359806 42.1750663,54.5 C43.1241673,54.5519263 43.9351642,54.7093659 44.5904694,54.9681287 C45.5114766,53.8283155 46.9168256,53.1 48.4913793,53.1 C49.3733189,53.1 50.202173,53.3284979 50.922563,53.7298196 L51.6741478,40.1921 C50.8250576,40.1380408 50.0501568,39.8093714 49.4363395,39.2934497 L49.4363395,39.2934497 Z" id="Oval-1"></path>
                                    </g>
                                </g>
                            </g>
                        </g>
                    </g>
                </g>
            </g>
        </g>
    </g>
</svg>