<?xml version="1.0" encoding="UTF-8" standalone="no"?>
<svg width="754px" height="691px" viewBox="0 0 754 691" version="1.1" xmlns="http://www.w3.org/2000/svg" xmlns:xlink="http://www.w3.org/1999/xlink" xmlns:sketch="http://www.bohemiancoding.com/sketch/ns">
    <!-- Generator: Sketch 3.0.4 (8054) - http://www.bohemiancoding.com/sketch -->
    <title>logo-big  ENG vector</title>
    <desc>Created with Sketch.</desc>
    <defs></defs>
    <g id="Page-1" stroke="none" stroke-width="1" fill="none" fill-rule="evenodd" sketch:type="MSPage">
        <g id="logo-big--ENG-vector" sketch:type="MSLayerGroup" fill="#8BBF00">
            <g id="Page-1" sketch:type="MSShapeGroup">
                <g id="logo-+-ЮНИСЕРВИС">
                    <g id="logo">
                        <path d="M5.00000022,639 C-17.0000001,605.2399 39.9999953,515 181.999995,519 C323.999995,523 508,711.999997 729,591 C497,784.000012 406.999991,639.000002 181.999993,622.000002 C106.999999,615.000002 30.0000001,668.999994 5.00000022,639 L5.00000022,639 Z" id="Path-1"></path>
                        <path d="M497,392.934497 C491.515788,397.519597 484.752514,400.625735 477.323375,401.639716 C473.718567,421.743428 456.140965,437 435,437 C411.871509,437 393.007881,418.739951 392.039072,395.84981 C389.82901,396.595674 387.461723,397 385,397 C373.016628,397 363.27102,387.418992 363.005555,375.499355 C360.21642,375.829952 357.378068,376 354.5,376 C328.333237,376 305.449488,361.943741 292.987592,340.970058 C272.978094,340.176383 257,323.704133 257,303.5 C257,286.856823 267.842189,272.745975 282.848734,267.84529 C278.049807,263.809639 275,257.76098 275,251 C275,241.945796 280.469576,234.16908 288.284843,230.793736 C280.093823,222.883302 275,211.786514 275,199.5 C275,176.216006 293.293698,157.204733 316.292221,156.055055 C312.973735,151.750349 311,146.35567 311,140.5 C311,127.767327 320.332002,117.214259 332.529525,115.307277 C332.180965,113.089364 332,110.815815 332,108.5 C332,84.4756134 351.475613,65 375.5,65 C387.086507,65 397.614991,69.5299307 405.411018,76.9153564 C406.717549,69.7186679 411.044515,63.5743564 417.031082,59.8432577 C413.211423,53.8141344 411,46.6653199 411,39 C411,17.4608948 428.460895,0 450,0 C465.537908,0 478.953552,9.08649228 485.223068,22.2356127 C488.347469,21.4290535 491.623629,21 495,21 C502.143728,21 508.838852,22.9207066 514.597128,26.273878 C521.709814,18.7178097 531.803955,14 543,14 C560.857577,14 575.911919,26.0020718 580.536483,42.3796707 C582.321739,42.1294029 584.145758,42 586,42 C590.180081,42 594.206565,42.6576285 597.981635,43.8750686 C604.99074,37.1400507 614.51189,33 625,33 C646.539105,33 664,50.4608948 664,72 C664,74.0991755 663.834153,76.1596152 663.514846,78.168931 C680.454999,82.4160132 693,97.7429856 693,116 C693,119.551157 692.525375,122.99146 691.636099,126.260932 C705.390873,132.287304 715,146.021486 715,162 C715,165.439656 714.554712,168.77531 713.718636,171.952459 C724.700433,178.851842 732,191.073468 732,205 C732,216.839975 726.723903,227.447652 718.394572,234.600168 C720.70845,239.58564 722,245.141991 722,251 C740.196048,254.921674 754,270.848794 754,290 C754,298.601011 751.215737,306.551723 746.499348,313 C751.215737,319.448277 754,327.398989 754,336 C754,357.539105 736.539105,375 715,375 C704.127838,375 694.294749,370.551199 687.221841,363.374704 C680.107807,372.861774 668.770733,379 656,379 C651.695017,379 647.552948,378.302484 643.680643,377.014303 C641.220005,396.185084 624.840107,411 605,411 C590.623529,411 578.063908,403.221144 571.300531,391.642827 C569.567289,391.878348 567.797851,392 566,392 C560.701222,392 555.649255,390.943273 551.043345,389.029065 C547.495711,392.984869 543.151679,396.211763 538.263447,398.457551 L545.761441,549.042265 C553.298652,544.568617 562.09936,542 571.5,542 C591.322096,542 608.476801,553.420459 616.743183,570.040446 C618.645999,570.010893 620.567525,570 622.5,570 C649.985669,570 659.195302,581.506381 670,602 C670.492223,602.299465 672.506877,605.692961 673,606 C547,655 413,588 378,570 C376.232703,569.441969 368,565 368,565 C373.234305,558.41363 398.23888,543.59806 424,545 C433.541629,545.519263 441.694851,547.093659 448.282852,549.681287 C457.542045,538.283155 471.670487,531 487.5,531 C496.366432,531 504.699179,533.284979 511.9415,537.298196 L519.497433,401.921 C510.961246,401.380408 503.17091,398.093714 497,392.934497 L497,392.934497 Z" id="Oval-1"></path>
                    </g>
                    <g id="УНИСЕРВИС" transform="translate(5.000000, 452.000000)">
                        <path d="M0.388888889,0.978036176 L12.9211886,0.978036176 L12.9211886,33.5620155 C12.9211886,38.1572151 13.1300582,41.3598818 13.5478036,43.170112 C13.965549,44.9803421 14.8358389,46.351919 16.1586994,47.2848837 C17.4815599,48.2178485 19.1037802,48.6843239 21.0254091,48.6843239 C23.1141362,48.6843239 24.7711681,48.1691122 25.9965547,47.1386736 C27.2219412,46.1082349 27.9738717,44.7436203 28.2523686,43.044789 C28.5308656,41.3459576 28.670112,38.1850647 28.670112,33.5620155 L28.670112,0.978036176 L39.1554694,0.978036176 L39.1554694,33.0607235 C39.1554694,39.4661532 38.7864665,44.2423041 38.0484496,47.3893196 C37.3104327,50.536335 35.4306066,53.2377148 32.4089147,55.4935401 C29.3872229,57.7493653 25.2307184,58.877261 19.9392765,58.877261 C14.9820309,58.877261 11.0831322,58.048745 8.24246339,56.3916882 C5.40179458,54.7346314 3.38272204,52.4092168 2.18518519,49.4153747 C0.987648333,46.4215325 0.388888889,41.1371323 0.388888889,33.5620155 L0.388888889,0.978036176 Z M49.4737295,0.978036176 L63.3845823,0.978036176 L78.047373,36.4026701 L78.047373,0.978036176 L87.7390181,0.978036176 L87.7390181,58 L76.543497,58 L59.1653747,16.7269595 L59.1653747,58 L49.4737295,58 L49.4737295,0.978036176 Z M98.0155039,0.978036176 L110.547804,0.978036176 L110.547804,58 L98.0155039,58 L98.0155039,0.978036176 Z M156.207149,13.3850129 L145.847115,17.3535745 C144.371081,12.6469762 141.669701,10.2937123 137.742894,10.2937123 C135.904814,10.2937123 134.44969,10.8158863 133.377476,11.8602498 C132.305263,12.9046133 131.769165,14.1230192 131.769165,15.5155039 C131.769165,17.1307861 132.402736,18.4188152 133.669897,19.3796296 C134.937058,20.3404441 137.589701,21.6006238 141.627907,23.1602067 C145.304067,24.5248417 148.193429,25.8755316 150.296081,27.212317 C152.398733,28.5491023 154.097539,30.3662676 155.39255,32.6638674 C156.68756,34.9614671 157.335056,37.6280354 157.335056,40.663652 C157.335056,45.9829436 155.503966,50.3483177 151.841731,53.7599053 C148.179496,57.1714928 143.271061,58.877261 137.116279,58.877261 C126.784043,58.877261 120.183764,53.6555216 117.315245,43.2118863 L128.260121,40.0788114 C129.596906,45.8158484 132.646402,48.6843239 137.408699,48.6843239 C139.580976,48.6843239 141.342442,48.120376 142.693152,46.9924634 C144.043863,45.8645508 144.719208,44.3815768 144.719208,42.543497 C144.719208,41.1510123 144.24577,39.9047572 143.29888,38.8046942 C142.351991,37.7046313 140.179747,36.541924 136.782084,35.3165375 C132.409682,33.7569546 129.151317,32.3436038 127.006891,31.0764427 C124.862464,29.8092816 123.094035,27.9990787 121.70155,25.6457795 C120.309066,23.2924803 119.612834,20.6119875 119.612834,17.6042205 C119.612834,12.4798768 121.262903,8.28159833 124.563092,5.00925926 C127.863281,1.73692019 132.228655,0.100775194 137.659345,0.100775194 C147.573837,0.100775194 153.756376,4.52881016 156.207149,13.3850129 Z M165.063307,0.978036176 L199.736003,0.978036176 L199.736003,10.75323 L177.595607,10.75323 L177.595607,23.9956934 L194.806632,23.9956934 L194.806632,33.8126615 L177.595607,33.8126615 L177.595607,47.8070629 L199.736003,47.8070629 L199.736003,58 L165.063307,58 L165.063307,0.978036176 Z M205.87683,0.978036176 L223.798019,0.978036176 C227.279231,0.978036176 229.945799,1.13816952 231.797804,1.458441 C233.649808,1.77871248 235.522672,2.64204005 237.416451,4.04844961 C239.310231,5.45485917 240.793205,7.37645925 241.865418,9.81330749 C242.937631,12.2501557 243.47373,14.9863472 243.47373,18.0219638 C243.47373,25.1514855 240.800199,30.1643553 235.453058,33.0607235 L245.938415,58 L232.278208,58 L224.67528,35.4418605 L218.40913,35.4418605 L218.40913,58 L205.87683,58 L205.87683,0.978036176 Z M218.40913,10.2101637 L218.40913,26.209733 L223.923342,26.209733 C228.824888,26.209733 231.275624,23.4665793 231.275624,17.9801895 C231.275624,16.0864103 230.913584,14.5338131 230.189492,13.3223514 C229.4654,12.1108897 228.622959,11.2893361 227.662145,10.8576658 C226.70133,10.4259955 225.287979,10.2101637 223.42205,10.2101637 L218.40913,10.2101637 Z M246.439707,0.978036176 L259.598622,0.978036176 L268.371232,44.4233419 L277.436262,0.978036176 L288.172265,0.978036176 L274.177864,58.2924203 L260.141688,58 L246.439707,0.978036176 Z M292.349699,0.978036176 L304.881998,0.978036176 L304.881998,58 L292.349699,58 L292.349699,0.978036176 Z M350.541344,13.3850129 L340.181309,17.3535745 C338.705275,12.6469762 336.003896,10.2937123 332.077089,10.2937123 C330.239009,10.2937123 328.783884,10.8158863 327.711671,11.8602498 C326.639458,12.9046133 326.103359,14.1230192 326.103359,15.5155039 C326.103359,17.1307861 326.73693,18.4188152 328.004091,19.3796296 C329.271252,20.3404441 331.923896,21.6006238 335.962102,23.1602067 C339.638261,24.5248417 342.527624,25.8755316 344.630276,27.212317 C346.732928,28.5491023 348.431733,30.3662676 349.726744,32.6638674 C351.021755,34.9614671 351.669251,37.6280354 351.669251,40.663652 C351.669251,45.9829436 349.838161,50.3483177 346.175926,53.7599053 C342.513691,57.1714928 337.605256,58.877261 331.450474,58.877261 C321.118237,58.877261 314.517959,53.6555216 311.64944,43.2118863 L322.594315,40.0788114 C323.931101,45.8158484 326.980596,48.6843239 331.742894,48.6843239 C333.91517,48.6843239 335.676637,48.120376 337.027347,46.9924634 C338.378057,45.8645508 339.053402,44.3815768 339.053402,42.543497 C339.053402,41.1510123 338.579965,39.9047572 337.633075,38.8046942 C336.686185,37.7046313 334.513942,36.541924 331.116279,35.3165375 C326.743877,33.7569546 323.485512,32.3436038 321.341085,31.0764427 C319.196659,29.8092816 317.42823,27.9990787 316.035745,25.6457795 C314.64326,23.2924803 313.947028,20.6119875 313.947028,17.6042205 C313.947028,12.4798768 315.597098,8.28159833 318.897287,5.00925926 C322.197476,1.73692019 326.56285,0.100775194 331.99354,0.100775194 C341.908031,0.100775194 348.090571,4.52881016 350.541344,13.3850129 L350.541344,13.3850129 Z" id="UNISERVIS"></path>
                    </g>
                </g>
            </g>
        </g>
    </g>
</svg>