<?xml version="1.0" encoding="UTF-8" standalone="no"?>
<svg width="147px" height="144px" viewBox="0 0 147 144" version="1.1" xmlns="http://www.w3.org/2000/svg" xmlns:xlink="http://www.w3.org/1999/xlink" xmlns:sketch="http://www.bohemiancoding.com/sketch/ns">
    <!-- Generator: Sketch 3.0.4 (8054) - http://www.bohemiancoding.com/sketch -->
    <title>Oval 1 + ЮНИСЕРВИС 2 + logo 2</title>
    <desc>Created with Sketch.</desc>
    <defs>
        <rect id="path-1" x="0" y="0" width="187" height="230"></rect>
    </defs>
    <g id="Page-2" stroke="none" stroke-width="1" fill="none" fill-rule="evenodd" sketch:type="MSPage">
        <g id="Oval-1-+-ЮНИСЕРВИС-2-+-logo-2" sketch:type="MSLayerGroup">
            <mask id="mask-2" sketch:name="Rectangle 3" fill="white">
                <use xlink:href="#path-1"></use>
            </mask>
            <use id="Rectangle-3" sketch:type="MSShapeGroup" xlink:href="#path-1"></use>
            <circle id="Oval-1" fill="#0073AE" sketch:type="MSShapeGroup" mask="url(#mask-2)" cx="15" cy="12" r="132"></circle>
            <text id="УНИСЕРВИС-2" sketch:type="MSTextLayer" mask="url(#mask-2)" font-family="Franklin Gothic Demi Cond" font-size="11" font-style="condensed" font-weight="473" fill="#8BBF00">
                <tspan x="23" y="69">УНИСЕРВИС</tspan>
            </text>
            <g id="ЮНИСЕРВИС-2-+-logo-2" mask="url(#mask-2)">
                <g transform="translate(37.000000, 20.000000)" id="logo-2">
                    <g>
                        <path d="M0.497347502,63.9 C-1.69098145,60.52399 3.97877938,51.5 18.1034478,51.9 C32.2281162,52.3 50.530504,71.1999997 72.5132626,59.1 C49.4363395,78.4000012 40.484084,63.9000002 18.1034475,62.2000002 C10.6432359,61.5000002 2.98408489,66.8999994 0.497347502,63.9 Z" id="Path-1" fill="#8BBF00" sketch:type="MSShapeGroup"></path>
                        <path d="M49.4363395,39.2934497 C48.8908277,39.7519597 48.2180883,40.0625735 47.4791155,40.1639716 C47.1205471,42.1743428 45.3721119,43.7 43.2692308,43.7 C40.9686514,43.7 39.0922958,41.8739951 38.9959289,39.584981 C38.7760952,39.6595674 38.5406223,39.7 38.295756,39.7 C37.103776,39.7 36.1343852,38.7418992 36.1079797,37.5499355 C35.8305457,37.5829952 35.5482164,37.6 35.2619363,37.6 C32.6591416,37.6 30.3829067,36.1943741 29.1433281,34.0970058 C27.1529934,34.0176383 25.5636605,32.3704133 25.5636605,30.35 C25.5636605,28.6856823 26.6421276,27.2745975 28.134821,26.784529 C27.6574742,26.3809639 27.3541114,25.776098 27.3541114,25.1 C27.3541114,24.1945796 27.8981673,23.416908 28.6755481,23.0793736 C27.8607915,22.2883302 27.3541114,21.1786514 27.3541114,19.95 C27.3541114,17.6216006 29.1737763,15.7204733 31.4614278,15.6055055 C31.1313397,15.1750349 30.9350133,14.635567 30.9350133,14.05 C30.9350133,12.7767327 31.8632627,11.7214259 33.0765443,11.5307277 C33.0418732,11.3089364 33.0238727,11.0815815 33.0238727,10.85 C33.0238727,8.44756134 34.9611021,6.5 37.3507958,6.5 C38.5032997,6.5 39.5505628,6.95299307 40.3260297,7.69153564 C40.4559896,6.97186679 40.8863908,6.35743564 41.4818716,5.98432577 C41.101932,5.38141344 40.8819629,4.66653199 40.8819629,3.9 C40.8819629,1.74608948 42.6187893,0 44.7612732,0 C46.3068211,0 47.6412684,0.908649228 48.264894,2.22356127 C48.5756766,2.14290535 48.9015546,2.1 49.2374005,2.1 C49.9479836,2.1 50.6139441,2.29207066 51.186717,2.6273878 C51.8942123,1.87178097 52.8982714,1.4 54.0119363,1.4 C55.7882205,1.4 57.2856683,2.60020718 57.7456714,4.23796707 C57.9232499,4.21294029 58.1046841,4.2 58.2891247,4.2 C58.7049153,4.2 59.1054276,4.26576285 59.4809319,4.38750686 C60.178124,3.71400507 61.125188,3.3 62.168435,3.3 C64.310919,3.3 66.0477454,5.04608948 66.0477454,7.2 C66.0477454,7.40991755 66.0312486,7.61596152 65.9994873,7.8168931 C67.6845158,8.24160132 68.9323607,9.77429856 68.9323607,11.6 C68.9323607,11.9551157 68.88515,12.299146 68.7966942,12.6260932 C70.1648746,13.2287304 71.1206897,14.6021486 71.1206897,16.2 C71.1206897,16.5439656 71.0763971,16.877531 70.9932331,17.1952459 C72.0855868,17.8851842 72.8116711,19.1073468 72.8116711,20.5 C72.8116711,21.6839975 72.2868604,22.7447652 71.458346,23.4600168 C71.6885063,23.958564 71.8169761,24.5141991 71.8169761,25.1 C73.6269279,25.4921674 75,27.0848794 75,29 C75,29.8601011 74.7230508,30.6551723 74.2539139,31.3 C74.7230508,31.9448277 75,32.7398989 75,33.6 C75,35.7539105 73.2631736,37.5 71.1206897,37.5 C70.0392412,37.5 69.0611488,37.0551199 68.3576102,36.3374704 C67.6499808,37.2861774 66.5222878,37.9 65.2519894,37.9 C64.8237749,37.9 64.4117654,37.8302484 64.0265891,37.7014303 C63.7818307,39.6185084 62.1525305,41.1 60.1790451,41.1 C58.7490248,41.1 57.4997256,40.3221144 56.8269759,39.1642827 C56.6545712,39.1878348 56.4785661,39.2 56.2997347,39.2 C55.7726679,39.2 55.2701513,39.0943273 54.8120038,38.9029065 C54.4591224,39.2984869 54.0270238,39.6211763 53.5407938,39.8457551 L54.2866154,54.9042265 C55.036338,54.4568617 55.91174,54.2 56.846817,54.2 C58.8185109,54.2 60.5248808,55.3420459 61.3471336,57.0040446 C61.5364057,57.0010893 61.7275389,57 61.9197613,57 C64.653747,57 65.5698245,58.1506381 66.6445623,60.2 C66.6935235,60.2299465 66.8939201,60.5692961 66.9429708,60.6 C54.4098143,65.5 41.0809019,58.8 37.5994695,57 C37.4236774,56.9441969 36.6047745,56.5 36.6047745,56.5 C37.1254282,55.841363 39.6126207,54.359806 42.1750663,54.5 C43.1241673,54.5519263 43.9351642,54.7093659 44.5904694,54.9681287 C45.5114766,53.8283155 46.9168256,53.1 48.4913793,53.1 C49.3733189,53.1 50.202173,53.3284979 50.922563,53.7298196 L51.6741478,40.1921 C50.8250576,40.1380408 50.0501568,39.8093714 49.4363395,39.2934497 Z" id="Oval-1" fill="#8BBF00" sketch:type="MSShapeGroup"></path>
                    </g>
                </g>
            </g>
        </g>
    </g>
</svg>