<?xml version="1.0" encoding="UTF-8" standalone="no"?>
<svg width="187px" height="230px" viewBox="0 0 187 230" version="1.1" xmlns="http://www.w3.org/2000/svg" xmlns:xlink="http://www.w3.org/1999/xlink" xmlns:sketch="http://www.bohemiancoding.com/sketch/ns">
    <!-- Generator: Sketch 3.0.4 (8054) - http://www.bohemiancoding.com/sketch -->
    <title>logo-corner-eng</title>
    <desc>Created with Sketch.</desc>
    <defs>
        <rect id="path-1" x="0" y="0" width="187" height="230"></rect>
        <rect id="path-3" x="0" y="0" width="187" height="230"></rect>
        <rect id="path-5" x="0" y="0" width="187" height="230"></rect>
    </defs>
    <g id="Page-1" stroke="none" stroke-width="1" fill="none" fill-rule="evenodd" sketch:type="MSPage">
        <g id="logo-corner-eng" sketch:type="MSLayerGroup">
            <g id="Page-2">
                <g id="Oval-1-+-ЮНИСЕРВИС-2-+-logo-2">
                    <g id="mask-2" fill="#FFFFFF" sketch:type="MSShapeGroup">
                        <rect id="path-1" x="0" y="0" width="187" height="230"></rect>
                    </g>
                    <g id="Rectangle-3" sketch:type="MSShapeGroup">
                        <rect id="path-1" x="0" y="0" width="187" height="230"></rect>
                    </g>
                    <g id="Oval-1-Clipped">
                        <mask id="mask-2" sketch:name="path-1" fill="white">
                            <use xlink:href="#path-1"></use>
                        </mask>
                        <g id="path-1"></g>
                        <circle id="Oval-1" fill="#0073AE" sketch:type="MSShapeGroup" mask="url(#mask-2)" cx="15" cy="12" r="132"></circle>
                    </g>
                    <g id="УНИСЕРВИС-2-Clipped">
                        <mask id="mask-4" sketch:name="path-1" fill="white">
                            <use xlink:href="#path-3"></use>
                        </mask>
                        <g id="path-1"></g>
                        <path d="M23.6111111,62.5335917 L25.0322997,62.5335917 L25.0322997,66.2286822 C25.0322997,66.7497873 25.055986,67.1129763 25.1033592,67.3182601 C25.1507324,67.5235439 25.249425,67.6790836 25.3994401,67.7848837 C25.5494552,67.8906838 25.7334184,67.9435831 25.9513351,67.9435831 C26.188201,67.9435831 26.3761119,67.8851571 26.5150732,67.7683032 C26.6540346,67.6514493 26.739305,67.4966992 26.7708872,67.3040482 C26.8024693,67.1113973 26.8182601,66.7529455 26.8182601,66.2286822 L26.8182601,62.5335917 L28.0073213,62.5335917 L28.0073213,66.1718346 C28.0073213,66.8982236 27.9654756,67.4398489 27.8817829,67.796727 C27.7980903,68.153605 27.5849141,68.459947 27.2422481,68.7157623 C26.899582,68.9715775 26.4282258,69.0994832 25.8281654,69.0994832 C25.2660035,69.0994832 24.8238604,69.0055278 24.5017227,68.8176141 C24.179585,68.6297005 23.950618,68.3659937 23.8148148,68.0264858 C23.6790117,67.6869779 23.6111111,67.087716 23.6111111,66.2286822 L23.6111111,62.5335917 Z M29.1774332,62.5335917 L30.7549526,62.5335917 L32.4177433,66.5508183 L32.4177433,62.5335917 L33.5167959,62.5335917 L33.5167959,69 L32.2472007,69 L30.2764858,64.3195521 L30.2764858,69 L29.1774332,69 L29.1774332,62.5335917 Z M34.6821705,62.5335917 L36.1033592,62.5335917 L36.1033592,69 L34.6821705,69 L34.6821705,62.5335917 Z M41.2812231,63.9405685 L40.1063738,64.3906115 C39.9389885,63.8568736 39.6326465,63.5900086 39.1873385,63.5900086 C38.9788965,63.5900086 38.8138823,63.6492242 38.6922911,63.7676572 C38.5706999,63.8860902 38.5099053,64.0242599 38.5099053,64.1821705 C38.5099053,64.3653469 38.5817535,64.511412 38.7254522,64.6203704 C38.8691509,64.7293287 39.1699661,64.8722357 39.627907,65.0490956 C40.0447911,65.203848 40.3724507,65.3570191 40.6108958,65.5086133 C40.8493408,65.6602075 41.0419889,65.8662778 41.1888458,66.1268303 C41.3357027,66.3873829 41.4091301,66.6897772 41.4091301,67.0340224 C41.4091301,67.637241 41.2014807,68.1322835 40.7861757,68.5191645 C40.3708707,68.9060456 39.8142441,69.0994832 39.1162791,69.0994832 C37.9445821,69.0994832 37.1960969,68.5073272 36.870801,67.3229974 L38.1119724,66.9677003 C38.2635666,67.6182921 38.6093858,67.9435831 39.1494401,67.9435831 C39.3957807,67.9435831 39.5955347,67.8796303 39.748708,67.7517227 C39.9018813,67.623815 39.9784668,67.4556427 39.9784668,67.2472007 C39.9784668,67.0892901 39.924778,66.9479622 39.8173988,66.8232127 C39.7100196,66.6984633 39.4636827,66.5666099 39.0783807,66.4276486 C38.5825413,66.2507887 38.213036,66.0905118 37.9698536,65.9468131 C37.7266712,65.8031144 37.5261277,65.5978337 37.3682171,65.3309647 C37.2103064,65.0640957 37.1313523,64.7601223 37.1313523,64.4190353 C37.1313523,63.8379242 37.3184736,63.3618307 37.6927218,62.9907407 C38.06697,62.6196507 38.5620124,62.4341085 39.1778639,62.4341085 C40.3021876,62.4341085 41.0033004,62.9362568 41.2812231,63.9405685 L41.2812231,63.9405685 Z M42.2855297,62.5335917 L46.2174849,62.5335917 L46.2174849,63.6421189 L43.7067183,63.6421189 L43.7067183,65.1438415 L45.6584841,65.1438415 L45.6584841,66.2571059 L43.7067183,66.2571059 L43.7067183,67.8440999 L46.2174849,67.8440999 L46.2174849,69 L42.2855297,69 L42.2855297,62.5335917 Z M46.9138674,62.5335917 L48.9461671,62.5335917 C49.3409437,62.5335917 49.643338,62.5517512 49.8533592,62.5880706 C50.0633803,62.6243901 50.2757669,62.7222932 50.4905254,62.8817829 C50.7052839,63.0412727 50.8734562,63.2591861 50.9950474,63.5355297 C51.1166386,63.8118733 51.1774332,64.1221631 51.1774332,64.4664083 C51.1774332,65.2749107 50.8742494,65.8433805 50.2678725,66.1718346 L51.4569337,69 L49.9078381,69 L49.0456503,66.4418605 L48.335056,66.4418605 L48.335056,69 L46.9138674,69 L46.9138674,62.5335917 Z M48.335056,63.580534 L48.335056,65.3949182 L48.960379,65.3949182 C49.5162244,65.3949182 49.794143,65.0838389 49.794143,64.461671 C49.794143,64.2469125 49.7530868,64.0708448 49.6709733,63.9334625 C49.5888598,63.7960803 49.4933253,63.7029144 49.3843669,63.6539621 C49.2754086,63.6050098 49.1151317,63.580534 48.9035314,63.580534 L48.335056,63.580534 Z M51.5137812,62.5335917 L53.0060293,62.5335917 L54.0008613,67.460379 L55.0288544,62.5335917 L56.2463394,62.5335917 L54.6593454,69.0331611 L53.0676141,69 L51.5137812,62.5335917 Z M56.7200689,62.5335917 L58.1412575,62.5335917 L58.1412575,69 L56.7200689,69 L56.7200689,62.5335917 Z M62.5090439,66.6455642 L63.8212748,66.7260982 C63.7739016,67.4272214 63.5512509,67.9980598 63.1533161,68.4386305 C62.7553813,68.8792012 62.2295468,69.0994832 61.5757967,69.0994832 C60.7799271,69.0994832 60.1735594,68.8041947 59.7566753,68.213609 C59.3397912,67.6230232 59.1313523,66.8097956 59.1313523,65.7739018 C59.1313523,64.7285334 59.3382121,63.9105686 59.751938,63.3199828 C60.1656639,62.729397 60.779927,62.4341085 61.5947459,62.4341085 C62.9433028,62.4341085 63.6775762,63.2678642 63.7975883,64.9354005 L62.4995693,65.0301464 C62.464829,64.0700498 62.1648033,63.5900086 61.5994832,63.5900086 C61.3026112,63.5900086 61.0665383,63.7447587 60.8912575,64.0542636 C60.7159767,64.3637684 60.6283376,64.9638198 60.6283376,65.8544358 C60.6283376,66.6503054 60.7088709,67.1974576 60.8699397,67.4959087 C61.0310086,67.7943598 61.2726082,67.9435831 61.5947459,67.9435831 C62.1126928,67.9435831 62.4174558,67.5109145 62.5090439,66.6455642 L62.5090439,66.6455642 Z M64.6550388,62.5335917 L68.586994,62.5335917 L68.586994,63.6421189 L66.0762274,63.6421189 L66.0762274,65.1438415 L68.0279931,65.1438415 L68.0279931,66.2571059 L66.0762274,66.2571059 L66.0762274,67.8440999 L68.586994,67.8440999 L68.586994,69 L64.6550388,69 L64.6550388,62.5335917 Z" id="UNISERVICE" fill="#8BBF00" sketch:type="MSShapeGroup" mask="url(#mask-4)"></path>
                    </g>
                    <g id="ЮНИСЕРВИС-2-+-logo-2-Clipped">
                        <mask id="mask-6" sketch:name="path-1" fill="white">
                            <use xlink:href="#path-5"></use>
                        </mask>
                        <g id="path-1"></g>
                        <g id="ЮНИСЕРВИС-2-+-logo-2" mask="url(#mask-6)">
                            <g transform="translate(37.000000, 20.000000)" id="logo-2">
                                <g>
                                    <g id="Group" fill="#8BBF00" sketch:type="MSShapeGroup">
                                        <path d="M0.497347502,63.9 C-1.69098145,60.52399 3.97877938,51.5 18.1034478,51.9 C32.2281162,52.3 50.530504,71.1999997 72.5132626,59.1 C49.4363395,78.4000012 40.484084,63.9000002 18.1034475,62.2000002 C10.6432359,61.5000002 2.98408489,66.8999994 0.497347502,63.9 L0.497347502,63.9 Z" id="Path-1"></path>
                                        <path d="M49.4363395,39.2934497 C48.8908277,39.7519597 48.2180883,40.0625735 47.4791155,40.1639716 C47.1205471,42.1743428 45.3721119,43.7 43.2692308,43.7 C40.9686514,43.7 39.0922958,41.8739951 38.9959289,39.584981 C38.7760952,39.6595674 38.5406223,39.7 38.295756,39.7 C37.103776,39.7 36.1343852,38.7418992 36.1079797,37.5499355 C35.8305457,37.5829952 35.5482164,37.6 35.2619363,37.6 C32.6591416,37.6 30.3829067,36.1943741 29.1433281,34.0970058 C27.1529934,34.0176383 25.5636605,32.3704133 25.5636605,30.35 C25.5636605,28.6856823 26.6421276,27.2745975 28.134821,26.784529 C27.6574742,26.3809639 27.3541114,25.776098 27.3541114,25.1 C27.3541114,24.1945796 27.8981673,23.416908 28.6755481,23.0793736 C27.8607915,22.2883302 27.3541114,21.1786514 27.3541114,19.95 C27.3541114,17.6216006 29.1737763,15.7204733 31.4614278,15.6055055 C31.1313397,15.1750349 30.9350133,14.635567 30.9350133,14.05 C30.9350133,12.7767327 31.8632627,11.7214259 33.0765443,11.5307277 C33.0418732,11.3089364 33.0238727,11.0815815 33.0238727,10.85 C33.0238727,8.44756134 34.9611021,6.5 37.3507958,6.5 C38.5032997,6.5 39.5505628,6.95299307 40.3260297,7.69153564 C40.4559896,6.97186679 40.8863908,6.35743564 41.4818716,5.98432577 C41.101932,5.38141344 40.8819629,4.66653199 40.8819629,3.9 C40.8819629,1.74608948 42.6187893,0 44.7612732,0 C46.3068211,0 47.6412684,0.908649228 48.264894,2.22356127 C48.5756766,2.14290535 48.9015546,2.1 49.2374005,2.1 C49.9479836,2.1 50.6139441,2.29207066 51.186717,2.6273878 C51.8942123,1.87178097 52.8982714,1.4 54.0119363,1.4 C55.7882205,1.4 57.2856683,2.60020718 57.7456714,4.23796707 C57.9232499,4.21294029 58.1046841,4.2 58.2891247,4.2 C58.7049153,4.2 59.1054276,4.26576285 59.4809319,4.38750686 C60.178124,3.71400507 61.125188,3.3 62.168435,3.3 C64.310919,3.3 66.0477454,5.04608948 66.0477454,7.2 C66.0477454,7.40991755 66.0312486,7.61596152 65.9994873,7.8168931 C67.6845158,8.24160132 68.9323607,9.77429856 68.9323607,11.6 C68.9323607,11.9551157 68.88515,12.299146 68.7966942,12.6260932 C70.1648746,13.2287304 71.1206897,14.6021486 71.1206897,16.2 C71.1206897,16.5439656 71.0763971,16.877531 70.9932331,17.1952459 C72.0855868,17.8851842 72.8116711,19.1073468 72.8116711,20.5 C72.8116711,21.6839975 72.2868604,22.7447652 71.458346,23.4600168 C71.6885063,23.958564 71.8169761,24.5141991 71.8169761,25.1 C73.6269279,25.4921674 75,27.0848794 75,29 C75,29.8601011 74.7230508,30.6551723 74.2539139,31.3 C74.7230508,31.9448277 75,32.7398989 75,33.6 C75,35.7539105 73.2631736,37.5 71.1206897,37.5 C70.0392412,37.5 69.0611488,37.0551199 68.3576102,36.3374704 C67.6499808,37.2861774 66.5222878,37.9 65.2519894,37.9 C64.8237749,37.9 64.4117654,37.8302484 64.0265891,37.7014303 C63.7818307,39.6185084 62.1525305,41.1 60.1790451,41.1 C58.7490248,41.1 57.4997256,40.3221144 56.8269759,39.1642827 C56.6545712,39.1878348 56.4785661,39.2 56.2997347,39.2 C55.7726679,39.2 55.2701513,39.0943273 54.8120038,38.9029065 C54.4591224,39.2984869 54.0270238,39.6211763 53.5407938,39.8457551 L54.2866154,54.9042265 C55.036338,54.4568617 55.91174,54.2 56.846817,54.2 C58.8185109,54.2 60.5248808,55.3420459 61.3471336,57.0040446 C61.5364057,57.0010893 61.7275389,57 61.9197613,57 C64.653747,57 65.5698245,58.1506381 66.6445623,60.2 C66.6935235,60.2299465 66.8939201,60.5692961 66.9429708,60.6 C54.4098143,65.5 41.0809019,58.8 37.5994695,57 C37.4236774,56.9441969 36.6047745,56.5 36.6047745,56.5 C37.1254282,55.841363 39.6126207,54.359806 42.1750663,54.5 C43.1241673,54.5519263 43.9351642,54.7093659 44.5904694,54.9681287 C45.5114766,53.8283155 46.9168256,53.1 48.4913793,53.1 C49.3733189,53.1 50.202173,53.3284979 50.922563,53.7298196 L51.6741478,40.1921 C50.8250576,40.1380408 50.0501568,39.8093714 49.4363395,39.2934497 L49.4363395,39.2934497 Z" id="Oval-1"></path>
                                    </g>
                                </g>
                            </g>
                        </g>
                    </g>
                </g>
            </g>
        </g>
    </g>
</svg>